<svg width="34" height="34" viewBox="0 0 34 34" fill="none" xmlns="http://www.w3.org/2000/svg">
<path d="M12.2852 20.3006C12.2852 22.1281 13.6877 23.6014 15.4302 23.6014H18.986C20.5018 23.6014 21.7343 22.3122 21.7343 20.7256C21.7343 18.9972 20.9835 18.3881 19.8643 17.9914L14.1552 16.0081C13.036 15.6114 12.2852 15.0022 12.2852 13.2739C12.2852 11.6872 13.5177 10.3981 15.0335 10.3981H18.5893C20.3318 10.3981 21.7343 11.8714 21.7343 13.6989" stroke="#292D32" stroke-width="1.7" stroke-linecap="round" stroke-linejoin="round"/>
<path d="M17 8.5V25.5" stroke="#292D32" stroke-width="1.7" stroke-linecap="round" stroke-linejoin="round"/>
<path d="M17.0002 31.1667C24.8242 31.1667 31.1668 24.8241 31.1668 17C31.1668 9.17601 24.8242 2.83337 17.0002 2.83337C9.17613 2.83337 2.8335 9.17601 2.8335 17C2.8335 24.8241 9.17613 31.1667 17.0002 31.1667Z" stroke="#292D32" stroke-width="1.7" stroke-linecap="round" stroke-linejoin="round"/>
</svg>
