<svg width="23" height="23" viewBox="0 0 27 27" fill="none" xmlns="http://www.w3.org/2000/svg">
<path d="M3.375 3.375H5.625L6.075 5.625M7.875 14.625H19.125L23.625 5.625H6.075M7.875 14.625L6.075 5.625M7.875 14.625L5.2955 17.2045C4.58679 17.9132 5.08872 19.125 6.09099 19.125H19.125M19.125 19.125C17.8824 19.125 16.875 20.1324 16.875 21.375C16.875 22.6176 17.8824 23.625 19.125 23.625C20.3676 23.625 21.375 22.6176 21.375 21.375C21.375 20.1324 20.3676 19.125 19.125 19.125ZM10.125 21.375C10.125 22.6176 9.11764 23.625 7.875 23.625C6.63236 23.625 5.625 22.6176 5.625 21.375C5.625 20.1324 6.63236 19.125 7.875 19.125C9.11764 19.125 10.125 20.1324 10.125 21.375Z" stroke="#3C1F10" stroke-width="2" stroke-linecap="round" stroke-linejoin="round"/>
</svg>
