<svg width="18" height="17" viewBox="0 0 18 17" fill="none" xmlns="http://www.w3.org/2000/svg">
<path d="M10.4426 1.19375L11.9092 4.12708C12.1092 4.53542 12.6426 4.92708 13.0926 5.00208L15.7509 5.44375C17.4509 5.72708 17.8509 6.96042 16.6259 8.17708L14.5592 10.2437C14.2092 10.5937 14.0176 11.2687 14.1259 11.7521L14.7176 14.3104C15.1842 16.3354 14.1092 17.1187 12.3176 16.0604L9.8259 14.5854C9.3759 14.3188 8.63423 14.3188 8.1759 14.5854L5.68423 16.0604C3.9009 17.1187 2.81757 16.3271 3.28423 14.3104L3.8759 11.7521C3.98423 11.2687 3.79257 10.5937 3.44257 10.2437L1.3759 8.17708C0.159234 6.96042 0.550901 5.72708 2.2509 5.44375L4.90923 5.00208C5.3509 4.92708 5.88423 4.53542 6.08423 4.12708L7.5509 1.19375C8.3509 -0.397917 9.6509 -0.397917 10.4426 1.19375Z" fill="#FFBC14"/>
</svg>
