<svg width="18" height="18" viewBox="0 0 18 18" fill="none" xmlns="http://www.w3.org/2000/svg">
<path d="M10.8567 2.12154L12.2347 4.87744C12.4226 5.26107 12.9236 5.62905 13.3464 5.69951L15.8439 6.11446C17.4411 6.38066 17.8169 7.53939 16.666 8.68246L14.7244 10.6241C14.3955 10.9529 14.2155 11.5871 14.3172 12.0412L14.8731 14.4448C15.3116 16.3473 14.3016 17.0833 12.6183 16.0889L10.2773 14.7032C9.85457 14.4526 9.15776 14.4526 8.72715 14.7032L6.38621 16.0889C4.71074 17.0833 3.69294 16.3395 4.13138 14.4448L4.68726 12.0412C4.78904 11.5871 4.60896 10.9529 4.28014 10.6241L2.33848 8.68246C1.19541 7.53939 1.56338 6.38066 3.16055 6.11446L5.65808 5.69951C6.07303 5.62905 6.57411 5.26107 6.76201 4.87744L8.13996 2.12154C8.89157 0.626153 10.1129 0.626153 10.8567 2.12154Z" stroke="#FFBC14" stroke-width="1.5" stroke-linecap="round" stroke-linejoin="round"/>
</svg>
